HIERARCHY
ROOT Hips
{
	OFFSET 0.00000 0.00000 0.00000
	CHANNELS 6 Xposition Yposition Zposition Zrotation Yrotation Xrotation 
	JOINT LHipJoint
	{
		OFFSET 0 0 0
		CHANNELS 3 Zrotation Yrotation Xrotation
		JOINT LeftHip
		{
			OFFSET 1.36337 -1.57426 1.11036
			CHANNELS 3 Zrotation Yrotation Xrotation
			JOINT LeftKnee
			{
				OFFSET 2.38468 -6.55187 0.00000
				CHANNELS 3 Zrotation Yrotation Xrotation
				JOINT LeftAnkle
				{
					OFFSET 2.37166 -6.51609 0.00000
					CHANNELS 3 Zrotation Yrotation Xrotation
					JOINT LeftToe
					{
						OFFSET 0.29078 -0.79891 2.01393
						CHANNELS 3 Zrotation Yrotation Xrotation
						End Site
						{
							OFFSET 0.00000 -0.00000 1.07924
						}
					}
				}
			}
		}
	}
	JOINT RHipJoint
	{
		OFFSET 0 0 0
		CHANNELS 3 Zrotation Yrotation Xrotation
		JOINT RightHip
		{
			OFFSET -1.36349 -1.57426 1.11036
			CHANNELS 3 Zrotation Yrotation Xrotation
			JOINT RightKnee
			{
				OFFSET -2.29562 -6.30717 0.00000
				CHANNELS 3 Zrotation Yrotation Xrotation
				JOINT RightAnkle
				{
					OFFSET -2.40985 -6.62100 0.00000
					CHANNELS 3 Zrotation Yrotation Xrotation
					JOINT RightToe
					{
						OFFSET -0.23197 -0.63733 1.92232
						CHANNELS 3 Zrotation Yrotation Xrotation
						End Site
						{
							OFFSET -0.00000 -0.00000 1.01562
						}
					}
				}
			}
		}
	}
	JOINT lowerback
	{
		OFFSET 0 0 0
		CHANNELS 3 Zrotation Yrotation Xrotation
		JOINT Chest
		{
			OFFSET -0.08565 2.03602 -0.24562
			CHANNELS 3 Zrotation Yrotation Xrotation
			JOINT Chest2
			{
				OFFSET -0.00036 2.05693 0.00216
				CHANNELS 3 Zrotation Yrotation Xrotation
				JOINT lowerneck
				{
					OFFSET 0 0 0
					CHANNELS 3 Zrotation Yrotation Xrotation
					JOINT Neck
					{
						OFFSET -0.03664 1.69515 0.31789
						CHANNELS 3 Zrotation Yrotation Xrotation
						JOINT Head
						{
							OFFSET 0.00932 1.70181 -0.46013
							CHANNELS 3 Zrotation Yrotation Xrotation
							End Site
							{
								OFFSET 0.01243 1.77620 -0.19377
							}
						}
					}
				}
				JOINT LeftCollar
				{
					OFFSET 0 0 0
					CHANNELS 3 Zrotation Yrotation Xrotation
					JOINT LeftShoulder
					{
						OFFSET 3.74344 0.81315 -0.36647
CHANNELS 3 Zrotation Xrotation Yrotation
						JOINT LeftElbow
						{
OFFSET 0 -4.971850 -0.000000
CHANNELS 3 Zrotation Xrotation Yrotation
							JOINT LeftWrist
							{
OFFSET 0 -3.358110 0.000000
CHANNELS 3 Zrotation Xrotation Yrotation
								JOINT lhand
								{
									OFFSET 0 0 0
CHANNELS 3 Zrotation Xrotation Yrotation
									JOINT LFingers
									{
OFFSET 0 -0.622780 0.000000
CHANNELS 3 Zrotation Xrotation Yrotation
										End Site
										{
OFFSET 0 -0.502100 0.000000
										}
									}
								}
								JOINT LThumb
								{
OFFSET 0 0.000000 0.000000
CHANNELS 3 Zrotation Xrotation Yrotation
									End Site
									{
OFFSET 0 -0.509760 0.509760
									}
								}
							}
						}
					}
				}
				JOINT RightCollar
				{
					OFFSET 0 0 0
					CHANNELS 3 Zrotation Yrotation Xrotation
					JOINT RightShoulder
					{
						OFFSET -3.75385 0.50666 -0.06525
CHANNELS 3 Zrotation Xrotation Yrotation
						JOINT RightElbow
						{
OFFSET 0 -4.964930 -0.000000
CHANNELS 3 Zrotation Xrotation Yrotation
							JOINT RightWrist
							{
OFFSET 0 -3.349290 0.000000
CHANNELS 3 Zrotation Xrotation Yrotation
								JOINT rhand
								{
									OFFSET 0 0 0
CHANNELS 3 Zrotation Xrotation Yrotation
									JOINT RFingers
									{
OFFSET 0 -0.638040 0.000000
CHANNELS 3 Zrotation Xrotation Yrotation
										End Site
										{
OFFSET 0 -0.514410 0.000000
										}
									}
								}
								JOINT RThumb
								{
OFFSET 0 0.000000 0.000000
CHANNELS 3 Zrotation Xrotation Yrotation
									End Site
									{
OFFSET 0 -0.522260 0.522260
									}
								}
							}
						}
					}
				}
			}
		}
	}
}
MOTION
Frames: 7
Frame Time: 0.008333333333333333
-2.491222 13.125574 -0.511257 164.258948 66.019704 184.430269 0.000000 0.000000 0.000000 -6.068872 -1.489098 -80.453760 16.619816 19.723821 80.073160 -0.506671 -18.036852 -7.323158 0.018876 -0.885435 -2.433588 0.000000 0.000000 0.000000 -0.568423 -21.125431 -61.820355 -21.981052 -19.905648 95.801026 -3.648334 -0.353661 -36.388063 -2.082544 9.035256 -25.906161 -10.185520 8.866485 48.508084 -2.304719 7.799766 9.340395 -1.386790 4.587320 -9.836309 -6.210712 -6.307129 -31.850408 3.439292 -6.809612 20.477234 0.994991 -3.042965 12.293393 0.000000 0.000000 0.000000 27.723477 -20.479142 -53.313908 53.087069 -54.166417 28.658806 30.775566 -41.031435 13.241464 0.000000 0.000000 0.000000 -7.125000 0.000000 0.000000 2.334226 14.672248 1.667992 0.000000 0.000000 0.000000 -14.471011 -64.045566 57.871748 -33.697558 -43.858358 -13.903479 -16.638124 -21.131669 37.849069 0.000000 0.000000 0.000000 7.125000 0.000000 0.000000 24.615838 67.497352 -13.649850
-1.951678 13.011290 -0.519294 162.166219 69.861331 192.855174 0.000000 0.000000 0.000000 -5.947412 -1.174722 -90.720254 16.316823 19.671110 79.173992 -0.230058 -15.509711 -8.236071 0.055680 -1.519844 -4.180436 0.000000 0.000000 0.000000 2.132493 -16.765388 -74.997506 -21.747131 -19.926561 95.114226 -3.349907 -1.504974 -35.238465 -1.885304 8.622519 -24.621907 -17.832647 9.331888 31.033658 -0.474299 8.091790 10.046218 5.791061 4.249646 -5.864489 -7.755445 -5.845268 -31.855106 3.238535 -5.374754 20.364534 1.447487 -2.559960 12.217245 0.000000 0.000000 0.000000 26.279416 -18.992246 -51.102058 51.611286 -53.624682 27.466381 30.399757 -40.131907 13.297463 0.000000 0.000000 0.000000 -7.125000 0.000000 0.000000 2.073220 14.662988 1.481988 0.000000 0.000000 0.000000 -13.743199 -63.456817 62.205220 -35.200175 -44.953886 -14.954762 -17.514251 -21.767586 38.247793 0.000000 0.000000 0.000000 7.125000 0.000000 0.000000 24.132814 68.114695 -13.703120
-1.896319 12.899553 -0.696554 159.244696 75.299467 192.242406 0.000000 0.000000 0.000000 -6.128019 1.929108 -93.171167 16.505573 19.704609 79.734490 0.026366 -13.698618 -9.928269 0.188849 -2.787522 -7.688363 0.000000 0.000000 0.000000 1.376291 -12.832229 -78.939453 -21.611692 -19.937504 94.717015 -3.260296 -0.067371 -34.294524 -1.737585 8.296487 -23.618346 -18.139931 8.903178 24.911562 -0.922278 8.299884 10.341752 6.117344 4.104789 -3.598257 -8.856181 -5.468465 -31.811402 3.149704 -4.313646 20.607117 1.798592 -2.193589 12.270869 0.000000 0.000000 0.000000 25.580563 -17.908538 -50.049641 50.552231 -53.215754 26.615803 30.823840 -40.088799 13.079757 0.000000 0.000000 0.000000 -7.125000 0.000000 0.000000 2.384438 14.849962 1.695206 0.000000 0.000000 0.000000 -13.129262 -62.650568 63.831585 -36.114935 -45.591779 -15.604649 -17.335259 -20.953703 38.160481 0.000000 0.000000 0.000000 7.125000 0.000000 0.000000 24.227900 67.981868 -13.690761
-2.014586 12.910269 -0.764109 153.657381 80.907799 179.826167 0.000000 0.000000 0.000000 -6.168551 7.341895 -86.167855 17.017263 19.785059 81.248914 0.253104 -13.477920 -12.315924 0.355120 -3.827563 -10.592192 0.000000 0.000000 0.000000 -0.764376 -9.349760 -72.670687 -21.385943 -19.953897 94.055325 -3.233206 2.028336 -33.580365 -1.497142 7.727230 -21.889552 -16.468228 10.108683 28.510168 -1.443687 9.851900 11.968155 3.932459 4.902933 -3.290391 -7.880732 -5.008174 -31.748266 2.124265 -3.835090 20.822427 1.343197 -2.049915 12.267785 0.000000 0.000000 0.000000 25.931779 -17.776440 -49.986260 49.591231 -52.828016 25.848464 30.714820 -39.840090 13.015134 0.000000 0.000000 0.000000 -7.125000 0.000000 0.000000 2.317247 14.939523 1.642773 0.000000 0.000000 0.000000 -12.854162 -61.680445 63.294343 -36.879320 -46.108149 -16.153035 -15.165414 -22.184718 40.137860 0.000000 0.000000 0.000000 7.125000 0.000000 0.000000 29.606766 68.997381 -17.580106
-2.068531 12.888339 -0.704722 133.669815 85.638031 156.004975 0.000000 0.000000 0.000000 -5.598037 12.182698 -82.024876 17.463626 19.844939 82.565651 0.417030 -13.583956 -13.999160 0.383920 -3.979033 -11.017579 0.000000 0.000000 0.000000 -2.049088 -5.660398 -69.411178 -21.267251 -19.961443 93.707586 -3.175153 3.963889 -32.844339 -1.352166 7.361300 -20.790259 -17.153286 11.374308 30.011252 -1.212190 11.091004 12.761141 3.873531 5.456165 -3.121111 -7.723048 -4.437992 -32.282307 1.259365 -2.800232 21.449464 1.181551 -1.709003 12.540081 0.000000 0.000000 0.000000 25.445873 -17.408430 -49.047039 47.991063 -52.151903 24.578812 30.056042 -39.004292 12.782458 0.000000 0.000000 0.000000 -7.125000 0.000000 0.000000 1.891808 15.297101 1.326792 0.000000 0.000000 0.000000 -11.465148 -60.762997 64.518992 -37.263828 -46.362634 -16.430668 -18.899564 -20.182406 38.945251 0.000000 0.000000 0.000000 7.125000 0.000000 0.000000 23.496145 69.146964 -13.898023
-2.103668 12.883400 -0.613997 59.937460 87.177931 80.868621 0.000000 0.000000 0.000000 -5.361240 16.108680 -80.159858 17.687019 19.871215 83.223410 0.574634 -13.210431 -15.304389 0.404619 -4.083606 -11.311962 0.000000 0.000000 0.000000 -2.846252 -2.165256 -68.868111 -21.181769 -19.966519 93.457078 -3.021307 5.180416 -31.791665 -1.359640 7.380576 -20.847985 -18.264712 12.267703 29.678001 -1.202537 11.954318 13.061185 4.121740 5.792773 -2.906626 -7.272984 -3.550283 -32.889383 0.347181 -1.441385 21.859630 1.018818 -1.212307 12.736009 0.000000 0.000000 0.000000 25.140126 -16.739839 -47.729533 46.622085 -51.538336 23.502309 30.103448 -38.193232 13.252890 0.000000 0.000000 0.000000 -7.125000 0.000000 0.000000 1.876578 14.756162 1.337495 0.000000 0.000000 0.000000 -9.402196 -60.136532 65.672376 -37.297881 -46.384957 -16.455348 -20.870698 -18.805235 37.924967 0.000000 0.000000 0.000000 7.125000 0.000000 0.000000 19.698127 68.862005 -11.442535
-2.125292 12.884635 -0.509963 18.005539 84.145052 39.047760 0.000000 0.000000 0.000000 -5.208262 19.480292 -79.582319 17.819951 19.885689 83.614185 0.677014 -13.083361 -16.162455 0.361342 -3.860980 -10.685843 0.000000 0.000000 0.000000 -3.232389 1.223781 -69.927707 -21.088122 -19.971592 93.182953 -2.909506 5.615154 -31.104585 -1.294318 7.207637 -20.332306 -19.304181 13.261792 28.581646 -1.226770 13.011115 12.893836 4.269910 6.228641 -2.985526 -6.989822 -2.988207 -32.747620 -0.409269 -0.573928 21.868972 0.850962 -0.916229 12.679774 0.000000 0.000000 0.000000 24.791317 -16.890690 -47.510387 44.622337 -50.581290 21.946867 29.941369 -38.011154 13.359720 0.000000 0.000000 0.000000 -7.125000 0.000000 0.000000 1.755423 14.658192 1.254715 0.000000 0.000000 0.000000 -8.168447 -59.422131 65.492681 -36.729409 -46.008206 -16.045047 -18.076762 -20.056004 39.881605 0.000000 0.000000 0.000000 7.125000 0.000000 0.000000 25.979277 69.672202 -15.803923
